<svg width="15" height="15" viewBox="0 0 15 15" fill="none" xmlns="http://www.w3.org/2000/svg">
<path fill-rule="evenodd" clip-rule="evenodd" d="M3 1C3 0.447715 3.44772 0 4 0C4.55228 0 5 0.447715 5 1V1.5H10V1C10 0.447715 10.4477 0 11 0C11.5523 0 12 0.447715 12 1V1.5C13.6569 1.5 15 2.84315 15 4.5V12C15 13.6569 13.6569 15 12 15H3C1.34315 15 0 13.6569 0 12V4.5C0 2.84315 1.34315 1.5 3 1.5V1ZM10 3.5C10 4.05228 10.4477 4.5 11 4.5C11.5523 4.5 12 4.05228 12 3.5C12.5523 3.5 13 3.94772 13 4.5V6H2V4.5C2 3.94772 2.44772 3.5 3 3.5C3 4.05228 3.44772 4.5 4 4.5C4.55228 4.5 5 4.05228 5 3.5H10Z" fill="#231719"/>
</svg>
